<!DOCTYPE svg PUBLIC "-//W3C//DTD SVG 1.1//EN" "http://www.w3.org/Graphics/SVG/1.1/DTD/svg11.dtd">
<!-- Uploaded to: SVG Repo, www.svgrepo.com, Transformed by: SVG Repo Mixer Tools -->
<svg fill="#000000" width="256px" height="256px" viewBox="0 0 512 512" enable-background="new 0 0 512 512" id="Layer_1" version="1.1" xml:space="preserve" xmlns="http://www.w3.org/2000/svg" xmlns:xlink="http://www.w3.org/1999/xlink">
<g id="SVGRepo_bgCarrier" stroke-width="0"/>
<g id="SVGRepo_tracerCarrier" stroke-linecap="round" stroke-linejoin="round"/>
<g id="SVGRepo_iconCarrier"> <g> <path d="M482.772,284.126c-33.545-5.575-68.077-1.42-99.333,11.972l-14.578,6.244c0,0-19.331-11.338-21.638-12.418 c-12.025-5.646-71.228-19.144-77.59-21.115c-12.606-3.92-22.864-13.516-27.771-25.576c38.898-16.919,59.514-60.647,62.801-104.615 v-6.585h16.532c4.983,0,9.014-4.038,9.014-9.014c0-4.977-4.032-9.014-9.014-9.014h-11.268l-1.247-12.646 c-2.93-29.708-23.56-54.682-52.181-63.166l-16.432-4.871v-6.15c0-4.978-4.036-9.014-9.014-9.014h-51.31 c-4.968,0-8.999,4.023-9.008,8.991l-0.012,6.115l-16.808,4.988c-28.507,8.461-49.097,33.28-52.146,62.86l-1.329,12.893H89.401 c-4.977,0-9.014,4.038-9.014,9.014c0,4.977,4.038,9.014,9.014,9.014h16.96l0.012,7.265c3.251,43.17,23.633,86.528,62.085,103.635 c-4.853,12.318-14.636,21.919-27.524,25.898c-10.951,3.38-53.464,12.688-53.464,12.688c-0.006,0-0.012,0-0.012,0 c-5.875,1.303-57.56,13.897-63.522,55.658c-3.597,25.118-7.794,48.956-7.799,49.003c-0.464,2.617,0.264,5.317,1.972,7.359 c1.714,2.042,4.243,3.216,6.907,3.216h216.706l0.39,77.617c0.013,2.57,1.12,5.013,3.045,6.717h0 c2.032,1.799,4.722,2.595,7.401,2.156c13.901-2.275,59.663-5.324,103.591,7.068c2.946,0.831,10.079,2.281,14.238,3.103 c2.087,0.413,4.201,0.523,6.321,0.333c0,0,43.703-19.556,108.939-9.728c5.646,0.851,10.352-4.648,10.352-10.352V299.76 C496,291.99,490.442,285.417,482.772,284.126z M251.376,55.471c21.685,6.432,37.131,25.13,39.361,47.642l1.08,10.892h-51.75V52.12 L251.376,55.471z M222.039,36.187v77.818h-33.463l0.17-77.818H222.039z M119.707,102.937c2.301-22.395,17.741-40.998,39.338-47.407 l11.638-3.451l-0.135,61.926h-51.979L119.707,102.937z M124.379,138.618v-6.585h162.269l0.012,5.904 c-3.545,47.137-30.012,94.685-81.152,94.685S127.9,185.075,124.379,138.618z M205.507,250.651c6.772,0,13.122-0.769,19.185-2.007 c3.286,8.721,8.41,16.421,14.942,22.718l-33.886,27.518l-34.431-27.812c6.385-6.262,11.379-13.879,14.584-22.495 C192.085,249.865,198.576,250.651,205.507,250.651z M119.003,292.976l23.416,85.753H85.54v-78.006 C88.756,299.731,111.532,294.695,119.003,292.976z M41.777,339.737c2.166-15.141,14.108-25.194,25.734-31.515v70.506H35.697 C37.27,369.28,39.641,354.679,41.777,339.737z M161.105,378.729l-24.566-89.978c3.644-0.939,16.409-5.194,19.554-6.79 l44.009,35.535c1.649,1.326,3.656,1.995,5.663,1.995c2.013,0,4.026-0.669,5.681-2.019c0,0,30.791-22.938,30.276-22.938v84.195 H161.105z M291.624,462.58c-10.622,0-21.333,0.728-31.873,2.148V301.626c29.625-4.613,59.919-0.739,87.437,11.045l17.365,7.447 v153.917C364.554,474.036,315.316,462.58,291.624,462.58z M477.971,464.763c-31.902-4.384-64.438-2.195-95.389,6.303v-154.98 l7.958-3.416c27.524-11.796,57.853-15.611,87.431-11.057V464.763z"/> <path d="M325.492,378.729h-36.057c-4.977,0-9.014,4.038-9.014,9.014c0,4.977,4.038,9.014,9.014,9.014h36.057 c4.977,0,9.014-4.038,9.014-9.014C334.506,382.766,330.468,378.729,325.492,378.729z"/> <path d="M325.492,414.786h-36.057c-4.977,0-9.014,4.038-9.014,9.014s4.038,9.014,9.014,9.014h36.057 c4.977,0,9.014-4.038,9.014-9.014S330.468,414.786,325.492,414.786z"/> <path d="M445.682,378.729h-36.057c-4.977,0-9.014,4.038-9.014,9.014c0,4.977,4.038,9.014,9.014,9.014h36.057 c4.977,0,9.014-4.038,9.014-9.014C454.696,382.766,450.659,378.729,445.682,378.729z"/> <path d="M325.492,342.672h-36.057c-4.977,0-9.014,4.038-9.014,9.014s4.038,9.014,9.014,9.014h36.057 c4.977,0,9.014-4.038,9.014-9.014S330.468,342.672,325.492,342.672z"/> <path d="M445.682,342.672h-36.057c-4.977,0-9.014,4.038-9.014,9.014s4.038,9.014,9.014,9.014h36.057 c4.977,0,9.014-4.038,9.014-9.014S450.659,342.672,445.682,342.672z"/> <path d="M421.644,414.786h-12.019c-4.977,0-9.014,4.038-9.014,9.014s4.038,9.014,9.014,9.014h12.019 c4.977,0,9.014-4.038,9.014-9.014S426.621,414.786,421.644,414.786z"/> </g> </g>
</svg>