<!DOCTYPE svg PUBLIC "-//W3C//DTD SVG 1.1//EN" "http://www.w3.org/Graphics/SVG/1.1/DTD/svg11.dtd">
<!-- Uploaded to: SVG Repo, www.svgrepo.com, Transformed by: SVG Repo Mixer Tools -->
<svg fill="#000000" version="1.1" id="Capa_1" xmlns="http://www.w3.org/2000/svg" xmlns:xlink="http://www.w3.org/1999/xlink" viewBox="0 0 60 60" xml:space="preserve" width="256px" height="256px">
<g id="SVGRepo_bgCarrier" stroke-width="0"/>
<g id="SVGRepo_tracerCarrier" stroke-linecap="round" stroke-linejoin="round"/>
<g id="SVGRepo_iconCarrier"> <g> <g> <path d="M60,47L60,47V1c0-0.6-0.4-1-1-1H15c-0.6,0-1,0.4-1,1v33h2V2h42v44H47c-0.6,0-1,0.4-1,1v11H16v-8h-2v9c0,0.6,0.4,1,1,1h32 c0.3,0,0.5-0.1,0.7-0.3l12-12c0.1-0.1,0.1-0.2,0.2-0.3v-0.1C60,47.2,60,47.1,60,47z M56.6,48l-4.3,4.3L48,56.6V48H56.6z"/> <rect x="19" y="5" width="8" height="2"/> <rect x="19" y="9" width="16" height="2"/> <rect x="19" y="18" width="21" height="2"/> <rect x="19" y="23" width="36" height="2"/> <rect x="19" y="28" width="36" height="2"/> <rect x="19" y="33" width="36" height="2"/> <rect x="19" y="49" width="18" height="2"/> <rect x="19" y="53" width="4" height="2"/> <path d="M30.3,45.9l6-2c0.4-0.1,0.7-0.5,0.7-0.9s-0.3-0.8-0.7-0.9l-6-2C30.2,40,30.1,40,30,40H4v-1h15v-2H3c-0.6,0-1,0.4-1,1v2H1 c-0.6,0-1,0.4-1,1v4c0,0.6,0.4,1,1,1h29C30.1,46,30.2,46,30.3,45.9z M2,42h6v2H2V42z M10,44v-2h19.8l3,1l-3,1H10z"/> <rect x="42" y="18" width="9" height="2"/> </g> </g> </g>
</svg>