<!DOCTYPE svg PUBLIC "-//W3C//DTD SVG 1.1//EN" "http://www.w3.org/Graphics/SVG/1.1/DTD/svg11.dtd">
<!-- Uploaded to: SVG Repo, www.svgrepo.com, Transformed by: SVG Repo Mixer Tools -->
<svg fill="#000000" version="1.1" id="Capa_1" xmlns="http://www.w3.org/2000/svg" xmlns:xlink="http://www.w3.org/1999/xlink" viewBox="0 0 60 60" xml:space="preserve" width="256px" height="256px">
<g id="SVGRepo_bgCarrier" stroke-width="0"/>
<g id="SVGRepo_tracerCarrier" stroke-linecap="round" stroke-linejoin="round"/>
<g id="SVGRepo_iconCarrier"> <g> <g> <path d="M59,14.5H1c-0.6,0-1,0.4-1,1v30c0,0.6,0.4,1,1,1h58c0.6,0,1-0.4,1-1v-30C60,14.9,59.6,14.5,59,14.5z M27,44.5v-1h-2v1H2 v-28h23v1h2v-1h3c5,0,9,4,9,9v10c0,5-4,9-9,9H27z M58,44.5H36.3c2.8-2,4.7-5.3,4.7-9v-10c0-3.7-1.8-7-4.7-9H58V44.5z"/> <path d="M53,26.5h2v-6c0-0.6-0.4-1-1-1h-6v2h5V26.5z"/> <path d="M53,39.5h-5v2h6c0.6,0,1-0.4,1-1v-6h-2V39.5z"/> <path d="M35,26.5h2c0-2.8-2.2-5-5-5v-2h-2v2v2h2C33.7,23.5,35,24.8,35,26.5z"/> <path d="M32,29.5h-2v2h2c1.7,0,3,1.3,3,3s-1.3,3-3,3h-2v2v2h2v-2c2.8,0,5-2.2,5-5S34.8,29.5,32,29.5z"/> <rect x="45" y="29.5" width="3" height="2"/> <rect x="5" y="35.5" width="3" height="2"/> <rect x="17" y="35.5" width="5" height="2"/> <rect x="10" y="35.5" width="5" height="2"/> <rect x="5" y="39.5" width="17" height="2"/> <path d="M9,27.5c2.2,0,4-1.8,4-4s-1.8-4-4-4s-4,1.8-4,4S6.8,27.5,9,27.5z M9,21.5c1.1,0,2,0.9,2,2s-0.9,2-2,2s-2-0.9-2-2 S7.9,21.5,9,21.5z"/> <rect x="25" y="19.5" width="2" height="2"/> <rect x="25" y="23.5" width="2" height="2"/> <rect x="25" y="27.5" width="2" height="2"/> <rect x="25" y="31.5" width="2" height="2"/> <rect x="25" y="35.5" width="2" height="2"/> <rect x="25" y="39.5" width="2" height="2"/> <rect x="5" y="31.5" width="17" height="2"/> <path d="M45.3,8.8l1.4,1.4l3-3c0.4-0.4,0.4-1,0-1.4l-3-3l-1.4,1.4l1.3,1.3H25v2h21.6L45.3,8.8z"/> <path d="M46.7,49.8l-1.4,1.4l1.3,1.3H25v2h21.6l-1.3,1.3l1.4,1.4l3-3c0.4-0.4,0.4-1,0-1.4L46.7,49.8z"/> <rect x="21" y="5.5" width="2" height="2"/> <rect x="17" y="5.5" width="2" height="2"/> <rect x="13" y="5.5" width="2" height="2"/> <rect x="9" y="5.5" width="2" height="2"/> <rect x="5" y="5.5" width="2" height="2"/> <rect x="1" y="5.5" width="2" height="2"/> <rect x="21" y="52.5" width="2" height="2"/> <rect x="17" y="52.5" width="2" height="2"/> <rect x="13" y="52.5" width="2" height="2"/> <rect x="9" y="52.5" width="2" height="2"/> <rect x="5" y="52.5" width="2" height="2"/> <rect x="1" y="52.5" width="2" height="2"/> </g> </g> </g>
</svg>